<svg width="35" height="24" viewBox="0 0 35 24" fill="none" xmlns="http://www.w3.org/2000/svg">
<rect width="35" height="24" rx="4" fill="#F1F6FF"/>
<path fill-rule="evenodd" clip-rule="evenodd" d="M16.5301 15.758V12.737H18.0893C18.7282 12.737 19.2675 12.5229 19.7071 12.1007L19.8126 11.9937C20.6156 11.1195 20.5629 9.75768 19.7071 8.94893C19.2792 8.52076 18.6931 8.28884 18.0893 8.30073H15.5864V15.758H16.5301ZM16.5302 11.8212V9.21652H18.1131C18.4531 9.21652 18.7756 9.34735 19.0159 9.58522C19.526 10.0847 19.5377 10.9173 19.0453 11.4347C18.8049 11.6904 18.4649 11.8331 18.1131 11.8212H16.5302ZM24.2147 11.0541C23.8102 10.6794 23.2592 10.4891 22.5617 10.4891C21.6649 10.4891 20.9908 10.8222 20.5453 11.4823L21.3777 12.0115C21.6825 11.5596 22.0986 11.3336 22.6262 11.3336C22.9603 11.3336 23.2827 11.4585 23.5347 11.6844C23.7809 11.8985 23.9216 12.2078 23.9216 12.5348V12.7549C23.5582 12.5527 23.101 12.4456 22.5383 12.4456C21.8818 12.4456 21.3542 12.6002 20.9615 12.9154C20.5688 13.2306 20.3695 13.6469 20.3695 14.1761C20.3578 14.6578 20.5629 15.1157 20.9263 15.425C21.2956 15.758 21.7645 15.9245 22.3155 15.9245C22.9661 15.9245 23.482 15.6331 23.8747 15.0503H23.9157V15.758H24.8184V12.6121C24.8184 11.952 24.6191 11.4287 24.2147 11.0541ZM21.6533 14.8184C21.4599 14.6757 21.3426 14.4437 21.3426 14.194C21.3426 13.9145 21.4716 13.6825 21.7237 13.4982C21.9816 13.3138 22.3041 13.2187 22.6851 13.2187C23.2127 13.2128 23.6231 13.3317 23.9162 13.5696C23.9162 13.9739 23.758 14.3248 23.4472 14.6221C23.1658 14.9076 22.7848 15.0681 22.3861 15.0681C22.1223 15.0741 21.8644 14.9849 21.6533 14.8184ZM26.8465 17.9999L30 10.6557H28.9743L27.5147 14.3189H27.4972L26.0025 10.6557H24.9767L27.0458 15.4309L25.8735 17.9999H26.8465Z" fill="#3C4043"/>
<path d="M13.2721 12.0828C13.2721 11.7914 13.2487 11.5 13.2018 11.2146H9.2218V12.8619H11.5019C11.4082 13.3911 11.1034 13.8669 10.6579 14.1642V15.2346H12.0178C12.8149 14.4913 13.2721 13.3911 13.2721 12.0828Z" fill="#4285F4"/>
<path d="M9.22199 16.2694C10.3591 16.2694 11.3204 15.8888 12.0179 15.2346L10.6581 14.1642C10.2771 14.4259 9.79056 14.5745 9.22199 14.5745C8.12001 14.5745 7.18802 13.8193 6.85392 12.8083H5.453V13.9144C6.16811 15.3595 7.62764 16.2694 9.22199 16.2694Z" fill="#34A853"/>
<path d="M6.85401 12.8084C6.67814 12.2791 6.67814 11.7023 6.85401 11.167V10.0669H5.45288C4.84904 11.2741 4.84904 12.7013 5.45288 13.9085L6.85401 12.8084Z" fill="#FBBC04"/>
<path d="M9.22199 9.4009C9.82573 9.389 10.406 9.62093 10.8398 10.0431L12.0473 8.81811C11.2794 8.09261 10.2712 7.69418 9.22199 7.70607C7.62764 7.70607 6.16811 8.62187 5.453 10.0669L6.85392 11.173C7.18802 10.1561 8.12001 9.4009 9.22199 9.4009Z" fill="#EA4335"/>
</svg>
