<svg width="33" height="32" viewBox="0 0 33 32" fill="none" xmlns="http://www.w3.org/2000/svg">
<path d="M0.666672 16C0.666672 7.16344 7.83012 0 16.6667 0C25.5032 0 32.6667 7.16344 32.6667 16C32.6667 24.8366 25.5032 32 16.6667 32C7.83012 32 0.666672 24.8366 0.666672 16Z" fill="#FF4D4F"/>
<path d="M18.4167 6C14.4386 8.4558 14.9167 15.375 14.9167 15.375C14.9167 15.375 13.1667 14.75 13.1667 11.9375C11.0788 13.2346 9.66669 15.7278 9.66669 18.5C9.66669 22.6421 12.8007 26 16.6667 26C20.5327 26 23.6667 22.6421 23.6667 18.5C23.6666 12.4063 18.4167 11.1562 18.4167 6ZM17.2816 23.4157C15.8749 23.7915 14.4503 22.8744 14.0995 21.3672C13.7488 19.8601 14.6048 18.3336 16.0115 17.9578C19.4075 17.0506 19.8331 15.0045 19.8331 15.0045C19.8331 15.0045 21.5266 22.2817 17.2816 23.4157Z" fill="white"/>
</svg>
