<svg width="33" height="32" viewBox="0 0 33 32" fill="none" xmlns="http://www.w3.org/2000/svg">
<path d="M0.333344 16C0.333344 7.16344 7.49679 0 16.3333 0C25.1699 0 32.3333 7.16344 32.3333 16C32.3333 24.8366 25.1699 32 16.3333 32C7.49679 32 0.333344 24.8366 0.333344 16Z" fill="#F58F56"/>
<g clip-path="url(#clip0_969_292)">
<path d="M23.7747 9.52534C23.3655 9.04789 22.8198 8.77503 22.2059 8.84326H10.4058C9.17804 8.84326 8.15491 10.0028 8.35953 11.2306L9.99654 21.4619C10.133 22.485 11.0197 23.1671 12.0428 23.1671H20.6371C21.6603 23.1671 22.547 22.4168 22.6834 21.4619L24.3204 11.2306C24.3886 10.6167 24.184 10.0028 23.7747 9.52534ZM17.7723 17.7104C17.5677 17.5058 17.3631 17.3693 17.0903 17.3011L17.636 14.5728L16.2718 14.3L15.6579 17.2329C15.3851 17.3011 15.1122 17.5058 14.8394 17.7104L11.4289 14.3682C14.0891 11.708 18.3862 11.708 21.0464 14.3682L17.7723 17.7104Z" fill="white"/>
</g>
<defs>
<clipPath id="clip0_969_292">
<rect width="16" height="16" fill="white" transform="translate(8.33334 8)"/>
</clipPath>
</defs>
</svg>
