<svg width="35" height="24" viewBox="0 0 35 24" fill="none" xmlns="http://www.w3.org/2000/svg">
<rect width="35" height="24" rx="4" fill="#F3FBFF"/>
<path d="M15.2357 17.7686L15.4503 16.4061L14.9724 16.395H12.6908L14.2764 6.34088C14.2813 6.31052 14.2973 6.28222 14.3207 6.26213C14.3441 6.24203 14.3741 6.23096 14.4052 6.23096H18.2525C19.5297 6.23096 20.4111 6.49674 20.8713 7.02132C21.087 7.26742 21.2244 7.52458 21.2909 7.80759C21.3606 8.10455 21.3619 8.45933 21.2938 8.89205L21.2888 8.92363V9.20089L21.5046 9.32312C21.6863 9.4195 21.8306 9.52983 21.9414 9.65616C22.126 9.86657 22.2454 10.134 22.2958 10.451C22.3479 10.7771 22.3306 11.1651 22.2454 11.6044C22.1469 12.1097 21.9878 12.5498 21.7729 12.9099C21.5751 13.2417 21.3233 13.5169 21.0243 13.7302C20.7388 13.9328 20.3996 14.0867 20.0161 14.1852C19.6445 14.2819 19.2208 14.3307 18.7561 14.3307H18.4567C18.2427 14.3307 18.0346 14.4078 17.8715 14.5461C17.7078 14.6872 17.5994 14.8799 17.5663 15.0907L17.5437 15.2134L17.1647 17.6148L17.1475 17.703C17.143 17.7309 17.1352 17.7449 17.1237 17.7543C17.1135 17.7628 17.0987 17.7686 17.0843 17.7686H15.2357Z" fill="#253B80"/>
<path d="M21.7079 8.9563C21.6965 9.02971 21.6834 9.10477 21.6686 9.18188C21.1612 11.7868 19.4255 12.6867 17.2085 12.6867H16.0798C15.8087 12.6867 15.5803 12.8835 15.538 13.1509L14.96 16.8161L14.7964 17.855C14.7689 18.0306 14.9043 18.1889 15.0814 18.1889H17.0835C17.3206 18.1889 17.5219 18.0166 17.5592 17.7829L17.5789 17.6811L17.9559 15.2891L17.9801 15.1579C18.0169 14.9233 18.2187 14.751 18.4558 14.751H18.7552C20.6948 14.751 22.2133 13.9635 22.6571 11.6846C22.8424 10.7327 22.7464 9.9378 22.2559 9.37875C22.1075 9.21018 21.9233 9.07032 21.7079 8.9563Z" fill="#179BD7"/>
<path d="M21.1761 8.74412C21.0986 8.72156 21.0186 8.70105 20.9365 8.68259C20.8541 8.66455 20.7696 8.64855 20.6827 8.63461C20.3783 8.58539 20.0449 8.56201 19.6876 8.56201H16.6722C16.5979 8.56201 16.5274 8.57882 16.4643 8.60918C16.3252 8.67603 16.2219 8.8077 16.1969 8.96888L15.5553 13.0319L15.5369 13.1504C15.5791 12.883 15.8076 12.6861 16.0787 12.6861H17.2074C19.4243 12.6861 21.1602 11.7858 21.6675 9.18134C21.6826 9.10423 21.6954 9.02918 21.7068 8.95577C21.5785 8.88768 21.4394 8.82943 21.2897 8.7798C21.2528 8.7675 21.2147 8.75561 21.1761 8.74412Z" fill="#222D65"/>
<path d="M16.1987 8.96907C16.2237 8.80787 16.3271 8.67621 16.4661 8.60976C16.5297 8.57941 16.5999 8.5626 16.674 8.5626H19.6896C20.0468 8.5626 20.3803 8.58597 20.6845 8.6352C20.7715 8.64914 20.8561 8.66514 20.9385 8.68318C21.0205 8.70164 21.1005 8.72215 21.178 8.7447C21.2165 8.75619 21.2547 8.76808 21.292 8.77998C21.4417 8.82961 21.5808 8.88826 21.7091 8.95594C21.8601 7.9933 21.7079 7.33787 21.1875 6.74438C20.6137 6.091 19.578 5.81128 18.2528 5.81128H14.4055C14.1347 5.81128 13.9039 6.00814 13.862 6.27598L12.2596 16.4335C12.228 16.6344 12.383 16.8158 12.5856 16.8158H14.9609L15.5572 13.0321L16.1987 8.96907Z" fill="#253B80"/>
</svg>
